<svg width="187" height="255" viewBox="0 0 187 255" fill="none" xmlns="http://www.w3.org/2000/svg">
<rect width="187" height="255" fill="black"/>
<path fill-rule="evenodd" clip-rule="evenodd" d="M0 0H187V255H0V0ZM1.24667 1.40496H185.753V253.595H1.24667V1.40496ZM3.74 4.21488H183.26V250.785H3.74V4.21488ZM4.98667 5.61983H182.013V249.38H3.74H4.98667V5.61983Z" fill="white"/>
<path d="M98.8802 37.0757C98.3552 38.9344 97.8687 40.8072 97.3042 42.6512C96.0227 39.7587 93.9223 37.1937 92.1569 35.124C92.1569 35.124 91.7941 41.5726 90.9569 44.9041C90.3443 47.3415 89.4347 50.0296 88.3977 51.9871C87.7025 49.8812 87.1095 47.7355 86.4891 45.6011C85.5787 48.3689 84.5955 51.5201 84.0167 53.851C83.4688 56.0753 82.9034 58.7664 82.9033 61.0149C82.9033 68.4805 87.5502 74.7918 93.545 74.7918C99.5398 74.7918 104.187 68.4805 104.187 61.0149C104.187 58.1045 103.165 53.5229 102.177 49.41C101.206 45.2563 100.034 41.1682 98.8802 37.0757ZM84.3957 72.8704C83.9633 73.6172 84.2906 74.723 84.8408 75.0998L90.7689 78.9411L84.8408 82.7824C84.1722 83.1654 83.8948 84.2185 84.2707 84.9471C84.6467 85.6758 85.5992 85.9315 86.2288 85.4729L93.545 80.7402L100.861 85.4729C101.491 85.9315 102.443 85.6758 102.819 84.9471C103.195 84.2185 102.918 83.1654 102.249 82.7824L96.3211 78.9411L102.249 75.0998C102.924 74.3643 103.072 73.6724 102.689 72.8674C102.075 72.1905 101.565 72.1057 100.861 72.4092L93.545 77.142L86.2288 72.4092C85.5203 72.0117 84.7541 71.9487 84.3957 72.8704V72.8704Z" fill="white"/>
<path d="M71.8892 177.315L50.504 144.359H45.4553V177.315H31.1667V99.7521H45.4553V130.241H50.3135L71.8894 99.7521H89.3214L62.6481 136.842L90.1311 177.315H71.8892ZM138.926 177.315L121.018 143.177H116.874V177.315H102.585V99.7521H127.542C143.117 99.7521 149.689 110.112 149.689 122.94C149.689 133.354 144.45 140.117 135.115 142.371L155.833 177.315H138.925L138.926 177.315ZM116.873 113.119V131.638H125.304C132.924 131.638 136.02 127.988 136.02 122.405C136.02 116.877 132.924 113.119 125.304 113.119H116.873Z" fill="white"/>
<path d="M31.1667 218.859V184.524H37.4917V218.859H31.1667V218.859ZM64.0048 190.798H52.7037V198.592H62.7184V204.793H52.7037V212.563H64.0048V218.859H46.337V184.525H64.0048V190.798V190.798ZM84.6763 219.334C75.8845 219.334 69.4114 212.491 69.4114 201.775C69.4114 190.916 76.0316 184.05 84.9925 184.05C90.8748 184.05 95.7451 186.972 98.4018 192.128L92.8568 195.455C91.2545 191.938 88.3872 190.251 84.9926 190.251C79.7218 190.251 75.7581 194.338 75.7581 201.609C75.7581 208.618 79.4688 213.132 85.2245 213.132C89.125 213.132 92.7092 210.947 93.5736 205.933H85.2457V200.207H99.5617V218.859H94.5859V214.107C92.6252 217.362 89.3361 219.334 84.6767 219.334L84.6763 219.334ZM124.767 190.798H113.466V198.592H123.481V204.793H113.466V212.563H124.767V218.859H107.1V184.525H124.767V190.798V190.798ZM148.349 218.859L140.422 203.747H138.587V218.859H132.262V184.524H143.31C150.204 184.524 153.114 189.11 153.114 194.789C153.114 199.399 150.794 202.392 146.662 203.39L155.833 218.859H148.349L148.349 218.859ZM138.587 190.442V198.639H142.319C145.692 198.639 147.063 197.023 147.063 194.552C147.063 192.105 145.692 190.442 142.319 190.442H138.587Z" fill="white"/>
</svg>
