<svg width="384" height="169" viewBox="0 0 384 169" fill="none" xmlns="http://www.w3.org/2000/svg">
<rect width="384" height="169" fill="black"/>
<path fill-rule="evenodd" clip-rule="evenodd" d="M0 0H384V169H0V0ZM2.56 0.931129H381.44V168.069H2.56V0.931129ZM7.68 2.79339H376.32V166.207H7.68V2.79339ZM10.24 3.72452H373.76V165.275H7.68H10.24V3.72452Z" fill="white"/>
<path d="M57.0914 44.452C56.18 47.6669 55.3356 50.9063 54.3557 54.0957C52.1311 49.0928 48.4851 44.6562 45.4207 41.0764C45.4207 41.0764 44.7909 52.2302 43.3375 57.9925C42.2742 62.2083 40.6952 66.8577 38.8951 70.2434C37.6884 66.601 36.6591 62.8897 35.5822 59.1979C34.0018 63.9853 32.2952 69.4356 31.2904 73.4673C30.3393 77.3145 29.3579 81.9691 29.3578 85.8583C29.3578 98.771 37.424 109.687 47.8301 109.687C58.2362 109.687 66.3025 98.771 66.3025 85.8583C66.3023 80.8242 64.5285 72.8998 62.8138 65.7859C61.1277 58.6016 59.095 51.5307 57.0914 44.452ZM31.9483 106.364C31.1977 107.656 31.7659 109.568 32.721 110.22L43.0113 116.864L32.721 123.508C31.5603 124.171 31.0789 125.992 31.7314 127.252C32.3839 128.513 34.0375 128.955 35.1304 128.162L47.8301 119.976L60.5298 128.162C61.6228 128.955 63.2763 128.513 63.9288 127.252C64.5814 125.992 64.1 124.171 62.9393 123.508L52.649 116.864L62.9393 110.22C64.1112 108.948 64.368 107.751 63.703 106.359C62.6372 105.188 61.7509 105.041 60.5298 105.566L47.8301 113.752L35.1304 105.566C33.9005 104.879 32.5704 104.77 31.9483 106.364V106.364Z" fill="white"/>
<path d="M118.957 108.717L105.436 87.9554H102.244V108.717H93.21V59.8542H102.244V79.0615H105.315L118.957 59.8542H129.978L113.114 83.2202L130.49 108.717H118.957ZM161.34 108.717L150.018 87.2109H147.398V108.717H138.364V59.8542H154.143C163.99 59.8542 168.145 66.3804 168.145 74.4623C168.145 81.0224 164.833 85.2831 158.931 86.7033L172.03 108.717H161.34L161.34 108.717ZM147.398 68.2754V79.9416H152.728C157.546 79.9416 159.503 77.6422 159.503 74.1254C159.503 70.6424 157.546 68.2754 152.728 68.2754H147.398Z" fill="white"/>
<path d="M179.067 108.673V60.5202H187.97V108.673H179.067ZM225.287 69.3188H209.381V80.2489H223.476V88.9463H209.381V99.8429H225.287V108.674H200.42V60.5211H225.287V69.3188ZM254.382 109.339C242.008 109.339 232.897 99.7421 232.897 84.7127C232.897 69.484 242.215 59.8542 254.827 59.8542C263.106 59.8542 269.961 63.9529 273.701 71.184L265.896 75.8493C263.641 70.9175 259.605 68.5516 254.827 68.5516C247.409 68.5516 241.83 74.2832 241.83 84.48C241.83 94.3103 247.052 100.642 255.154 100.642C260.644 100.642 265.688 97.576 266.905 90.5448H255.183V82.514H275.333V108.673H268.33V102.008C265.57 106.573 260.94 109.339 254.382 109.339ZM310.81 69.3188H294.904V80.2489H309V88.9463H294.904V99.8429H310.81V108.674H285.943V60.5211H310.81V69.3188ZM344.001 108.673L332.844 87.479H330.262V108.673H321.359V60.5202H336.908C346.612 60.5202 350.707 66.9515 350.707 74.9158C350.707 81.3805 347.443 85.5792 341.627 86.9787L354.535 108.672L344.001 108.673ZM330.261 68.8189V80.3154H335.514C340.262 80.3154 342.191 78.0495 342.191 74.5838C342.191 71.1515 340.262 68.8189 335.514 68.8189H330.261Z" fill="white"/>
</svg>
