<svg width="423" height="511" viewBox="0 0 423 511" fill="none" xmlns="http://www.w3.org/2000/svg">
<g clip-path="url(#clip0_11_51)">
<rect width="422.172" height="510.828" fill="black"/>
<path fill-rule="evenodd" clip-rule="evenodd" d="M0 0H422.172V510.828H0V0ZM2.81448 2.81448H419.358V508.014H2.81448V2.81448ZM8.44344 8.44344H413.729V502.385H8.44344V8.44344ZM11.2579 11.2579H410.914V499.57H8.44344H11.2579V11.2579Z" fill="white"/>
<path d="M223.232 74.2717C222.047 77.9951 220.949 81.7469 219.674 85.4409C216.781 79.6465 212.039 74.5082 208.054 70.3621C208.054 70.3621 207.235 83.2802 205.345 89.954C203.962 94.8368 201.908 100.222 199.567 104.143C197.997 99.9243 196.659 95.6259 195.258 91.3502C193.203 96.8949 190.983 103.207 189.676 107.877C188.439 112.333 187.163 117.724 187.163 122.228C187.163 137.183 197.654 149.827 211.188 149.827C224.721 149.827 235.212 137.183 235.212 122.228C235.212 116.398 232.905 107.22 230.675 98.9803C228.482 90.6595 225.838 82.4701 223.232 74.2717ZM190.532 145.977C189.556 147.473 190.295 149.689 191.537 150.443L204.92 158.139L191.537 165.834C190.027 166.601 189.401 168.71 190.25 170.17C191.099 171.63 193.249 172.142 194.671 171.223L211.188 161.743L227.704 171.223C229.126 172.142 231.276 171.63 232.125 170.17C232.974 168.71 232.348 166.601 230.838 165.834L217.455 158.139L230.838 150.443C232.362 148.97 232.696 147.584 231.831 145.971C230.445 144.615 229.293 144.445 227.704 145.053L211.188 154.535L194.671 145.053C193.071 144.257 191.341 144.131 190.532 145.977Z" fill="white"/>
<path d="M162.297 355.206L114.018 289.186H102.62V355.206H70.362V199.828H102.62V260.905H113.588L162.298 199.828H201.653L141.435 274.129L203.48 355.206H162.297ZM313.641 355.206L273.21 286.819H263.856V355.206H231.597V199.828H287.939C323.101 199.828 337.939 220.581 337.939 246.28C337.939 267.14 326.111 280.688 305.036 285.204L351.81 355.205H313.638L313.641 355.206ZM263.854 226.606V263.703H282.886C300.09 263.703 307.079 256.391 307.079 245.208C307.079 234.133 300.09 226.606 282.886 226.606H263.854Z" fill="white"/>
<path d="M70.362 438.429V369.648H84.6415V438.429H70.362ZM144.497 382.216H118.984V397.828H141.593V410.252H118.984V425.816H144.497V438.43H104.611V369.649H144.497V382.216V382.216ZM191.166 439.38C171.317 439.38 156.703 425.672 156.703 404.204C156.703 382.452 171.649 368.697 191.88 368.697C205.159 368.697 216.155 374.551 222.152 384.88L209.634 391.544C206.017 384.5 199.543 381.12 191.88 381.12C179.98 381.12 171.032 389.307 171.032 403.872C171.032 417.913 179.409 426.957 192.403 426.957C201.209 426.957 209.301 422.578 211.252 412.535H192.451V401.064H224.771V438.428H213.538V428.909C209.111 435.43 201.686 439.38 191.166 439.38L191.166 439.38ZM281.676 382.216H256.162V397.828H278.771V410.252H256.162V425.816H281.676V438.43H241.789V369.649H281.676V382.216V382.216ZM334.914 438.429L317.017 408.156H312.876V438.429H298.596V369.648H323.537C339.101 369.648 345.67 378.835 345.67 390.211C345.67 399.445 340.434 405.442 331.105 407.441L351.81 438.428H334.913L334.914 438.429ZM312.875 381.502V397.923H321.3C328.916 397.923 332.009 394.687 332.009 389.736C332.009 384.834 328.916 381.502 321.3 381.502H312.875Z" fill="white"/>
</g>
<defs>
<clipPath id="clip0_11_51">
<rect width="422.172" height="510.828" fill="white"/>
</clipPath>
</defs>
</svg>
